<svg viewBox="0 -95 563 563" fill="none" xmlns="http://www.w3.org/2000/svg">
<path d="M297.461 258.612C445.345 260.292 562.69 284.945 562.69 315.112C562.69 346.366 436.727 371.703 281.345 371.703C125.962 371.703 0 346.366 0 315.112C0 284.982 117.058 260.353 264.686 258.619C259.804 282.518 253.773 302.755 249.681 314.179C249.461 314.484 249.346 314.794 249.346 315.111C249.347 318.666 263.673 321.547 281.345 321.547C299.017 321.547 313.343 318.666 313.343 315.111C313.343 314.873 313.278 314.64 313.153 314.409C308.529 297.32 302.312 280.274 297.461 258.612ZM268.424 129.32C271.058 145.214 272.807 163.666 272.843 185.631C272.797 185.703 272.771 185.776 272.771 185.851C272.771 186.407 274.077 186.898 276.104 187.214C276.191 187.227 276.28 187.241 276.369 187.254C276.502 187.273 276.638 187.291 276.777 187.309C276.853 187.318 276.93 187.328 277.008 187.337C277.148 187.353 277.29 187.37 277.435 187.385C277.538 187.395 277.642 187.405 277.747 187.415C277.879 187.427 278.013 187.439 278.148 187.45C278.279 187.461 278.413 187.47 278.548 187.479C278.656 187.487 278.766 187.495 278.877 187.502C279.039 187.512 279.204 187.519 279.371 187.527C279.474 187.532 279.577 187.538 279.681 187.542C279.851 187.549 280.022 187.553 280.195 187.558C280.297 187.561 280.4 187.564 280.503 187.566C280.773 187.572 281.047 187.575 281.325 187.575C281.33 187.575 281.336 187.576 281.342 187.576H281.344C281.629 187.576 281.911 187.572 282.189 187.566C282.267 187.565 282.344 187.562 282.421 187.56C282.623 187.555 282.823 187.55 283.02 187.542C283.11 187.538 283.199 187.533 283.287 187.529C283.464 187.52 283.639 187.512 283.811 187.502C283.914 187.496 284.016 187.488 284.117 187.481C284.265 187.471 284.412 187.461 284.556 187.449C284.68 187.439 284.803 187.427 284.924 187.416C285.041 187.405 285.157 187.395 285.271 187.383C285.395 187.37 285.517 187.356 285.638 187.341C285.744 187.329 285.849 187.316 285.952 187.303C286.077 187.287 286.2 187.27 286.32 187.252C286.413 187.239 286.504 187.225 286.594 187.211C286.736 187.189 286.875 187.168 287.009 187.144C287.024 187.141 287.039 187.139 287.054 187.136C288.458 186.883 289.444 186.538 289.782 186.149C289.785 186.146 289.788 186.142 289.791 186.139C289.81 186.117 289.826 186.095 289.841 186.072C289.843 186.069 289.845 186.067 289.847 186.064V186.061C289.889 185.992 289.913 185.923 289.913 185.851C289.913 185.78 289.89 185.711 289.848 185.642C289.879 166.931 291.96 147.419 294.971 129.326C444.025 130.756 562.69 155.516 562.69 185.852C562.69 217.107 436.727 242.444 281.345 242.444C125.962 242.444 0 217.107 0 185.852C0 155.468 119.039 130.679 268.424 129.32ZM281.345 0C436.727 0 562.69 25.3369 562.69 56.5916C562.69 87.8463 436.727 113.183 281.345 113.183C125.962 113.183 0 87.8463 0 56.5916C0 25.3369 125.962 0 281.345 0ZM281.345 50.1545C263.673 50.1545 249.346 53.0362 249.346 56.591C249.347 60.1456 263.673 63.0274 281.345 63.0274C299.017 63.0274 313.343 60.1456 313.343 56.591C313.343 53.0362 299.017 50.1545 281.345 50.1545Z" fill="#36F1A0"/>
</svg>
