<svg width="2420" height="372" viewBox="0 0 2420 372" fill="none" xmlns="http://www.w3.org/2000/svg">
<path d="M297.461 258.612C445.345 260.292 562.69 284.945 562.69 315.112C562.69 346.366 436.727 371.703 281.345 371.703C125.962 371.703 0 346.366 0 315.112C0 284.982 117.058 260.353 264.686 258.619C259.804 282.518 253.773 302.755 249.681 314.179C249.461 314.484 249.346 314.794 249.346 315.111C249.347 318.666 263.673 321.547 281.345 321.547C299.017 321.547 313.343 318.666 313.343 315.111C313.343 314.873 313.278 314.64 313.153 314.409C308.529 297.32 302.312 280.274 297.461 258.612ZM268.424 129.32C271.058 145.214 272.807 163.666 272.843 185.631C272.797 185.703 272.771 185.776 272.771 185.851C272.771 186.407 274.077 186.898 276.104 187.214C276.191 187.227 276.28 187.241 276.369 187.254C276.502 187.273 276.638 187.291 276.777 187.309C276.853 187.318 276.93 187.328 277.008 187.337C277.148 187.353 277.29 187.37 277.435 187.385C277.538 187.395 277.642 187.405 277.747 187.415C277.879 187.427 278.013 187.439 278.148 187.45C278.279 187.461 278.413 187.47 278.548 187.479C278.656 187.487 278.766 187.495 278.877 187.502C279.039 187.512 279.204 187.519 279.371 187.527C279.474 187.532 279.577 187.538 279.681 187.542C279.851 187.549 280.022 187.553 280.195 187.558C280.297 187.561 280.4 187.564 280.503 187.566C280.773 187.572 281.047 187.575 281.325 187.575C281.33 187.575 281.336 187.576 281.342 187.576H281.344C281.629 187.576 281.911 187.572 282.189 187.566C282.267 187.565 282.344 187.562 282.421 187.56C282.623 187.555 282.823 187.55 283.02 187.542C283.11 187.538 283.199 187.533 283.287 187.529C283.464 187.52 283.639 187.512 283.811 187.502C283.914 187.496 284.016 187.488 284.117 187.481C284.265 187.471 284.412 187.461 284.556 187.449C284.68 187.439 284.803 187.427 284.924 187.416C285.041 187.405 285.157 187.395 285.271 187.383C285.395 187.37 285.517 187.356 285.638 187.341C285.744 187.329 285.849 187.316 285.952 187.303C286.077 187.287 286.2 187.27 286.32 187.252C286.413 187.239 286.504 187.225 286.594 187.211C286.736 187.189 286.875 187.168 287.009 187.144C287.024 187.141 287.039 187.139 287.054 187.136C288.458 186.883 289.444 186.538 289.782 186.149C289.785 186.146 289.788 186.142 289.791 186.139C289.81 186.117 289.826 186.095 289.841 186.072C289.843 186.069 289.845 186.067 289.847 186.064V186.061C289.889 185.992 289.913 185.923 289.913 185.851C289.913 185.78 289.89 185.711 289.848 185.642C289.879 166.931 291.96 147.419 294.971 129.326C444.025 130.756 562.69 155.516 562.69 185.852C562.69 217.107 436.727 242.444 281.345 242.444C125.962 242.444 0 217.107 0 185.852C0 155.468 119.039 130.679 268.424 129.32ZM281.345 0C436.727 0 562.69 25.3369 562.69 56.5916C562.69 87.8463 436.727 113.183 281.345 113.183C125.962 113.183 0 87.8463 0 56.5916C0 25.3369 125.962 0 281.345 0ZM281.345 50.1545C263.673 50.1545 249.346 53.0362 249.346 56.591C249.347 60.1456 263.673 63.0274 281.345 63.0274C299.017 63.0274 313.343 60.1456 313.343 56.591C313.343 53.0362 299.017 50.1545 281.345 50.1545Z" fill="#36F1A0"/>
<path d="M794.371 44.0117C812.731 44.0117 828.931 47.2515 842.611 53.7314C856.291 60.2114 867.451 69.2115 875.731 80.7314C884.011 92.2514 889.412 105.572 891.932 121.052H845.491C842.251 107.732 836.132 97.6519 827.132 91.1719C818.132 84.6919 806.971 81.4521 793.651 81.4521C784.651 81.4522 776.372 82.8919 768.812 86.1318C761.252 89.3718 755.131 93.6922 750.451 99.4521C745.771 105.212 743.611 111.692 743.611 118.892C743.611 126.452 745.411 132.572 748.651 137.252C751.891 141.932 756.932 145.892 763.771 148.771C770.611 151.651 779.971 154.892 792.211 158.132L824.972 166.412C841.892 170.732 855.572 176.131 866.012 182.611C876.452 189.091 884.371 197.012 889.411 206.731C894.451 216.451 896.972 228.332 896.972 242.372C896.972 258.932 892.651 273.692 884.012 286.651C875.372 299.611 863.491 309.692 848.371 316.892C833.251 324.092 815.971 327.691 796.531 327.691C777.451 327.691 760.172 324.092 745.052 316.892V316.532C729.932 309.332 717.691 299.252 708.331 285.932C698.971 272.612 693.211 257.132 690.691 239.132H737.132C739.292 255.692 745.771 268.292 756.211 276.932C766.651 285.572 780.332 289.892 796.892 289.892C808.052 289.892 817.772 288.092 826.052 284.492C834.332 280.892 840.452 275.852 844.771 269.372C849.091 262.892 851.251 255.332 851.251 247.052C851.251 238.772 849.452 231.932 845.852 226.892C842.252 221.852 836.851 217.892 829.651 215.012C822.451 212.132 812.372 208.891 799.052 205.651L766.651 197.012C745.771 191.612 729.212 182.972 716.972 171.092C704.732 159.212 698.611 143.012 698.611 122.492C698.611 107.732 702.931 94.4112 711.571 82.5312C720.211 70.6515 731.731 61.2921 746.491 54.4521C761.251 47.6122 777.091 44.0118 794.371 44.0117ZM1156.9 89.0107H1068.7V322.65H1022.26V89.0107H934.062V49.0508H1156.9V89.0107ZM1372.55 89.0107H1240.07V162.091H1370.03V202.051H1240.07V282.69H1376.15V322.65H1193.99V49.0508H1372.55V89.0107ZM1475.52 317.251L1500 96.2109H1567.32L1591.8 317.251L1615.2 49.0508H1654.08L1629.6 322.65H1557.24L1533.48 101.251L1509.72 322.65H1437.72L1413.24 49.0508H1452.12L1475.52 317.251ZM1930.57 322.65H1882.33L1862.89 249.57H1758.85L1739.41 322.65H1691.17L1767.49 49.0508H1854.25L1930.57 322.65ZM2065.94 49.4111C2086.46 49.4112 2104.46 52.6512 2119.58 59.4912C2134.7 66.3312 2146.58 76.0505 2154.86 88.6504C2163.14 101.25 2167.46 115.651 2167.46 132.211C2167.46 150.571 2162.42 166.411 2152.34 179.73C2142.26 193.05 2128.22 202.771 2109.86 208.891L2171.06 322.65H2117.78L2062.34 215.371H2014.1V322.65H1967.66V49.0508L2065.94 49.4111ZM2284.83 49.0508C2311.83 49.0508 2335.59 54.0913 2355.75 64.5312C2375.91 74.9712 2391.39 90.4507 2402.55 110.971C2413.71 131.491 2419.11 156.331 2419.11 185.851C2419.11 215.37 2413.71 240.211 2402.55 260.73C2391.39 281.25 2375.91 296.731 2355.75 307.171C2335.59 317.611 2311.83 322.65 2284.83 322.65H2208.15V49.0508H2284.83ZM2254.59 282.69H2285.91C2303.91 282.69 2319.39 279.091 2332.35 271.531C2345.31 263.971 2355.03 252.811 2361.51 238.411C2367.99 224.011 2371.23 206.371 2371.23 185.851C2371.23 165.331 2367.99 147.691 2361.51 133.291C2355.03 118.891 2345.31 107.731 2332.35 100.171C2319.39 92.6109 2303.91 89.0107 2285.91 89.0107H2254.59V282.69ZM1769.65 209.61H1852.09L1811.05 55.1709L1769.65 209.61ZM2014.1 176.851H2065.94V177.211C2082.5 177.211 2095.46 173.251 2104.82 165.331C2114.18 157.411 2118.86 146.611 2118.86 132.571C2118.86 118.531 2114.18 107.731 2104.82 100.171C2095.46 92.6109 2082.5 88.6504 2065.94 88.6504H2014.1V176.851Z" fill="white"/>
</svg>
